<?xml version="1.0" encoding="UTF-8"?><svg id="Layer_2" xmlns="http://www.w3.org/2000/svg" viewBox="0 0 1740.83 373.81"><defs><style>.cls-1{fill:#ff6700;}.cls-2{fill:#fff;}.cls-3{fill:#f27321;}</style></defs><g id="Logo_Dark_Background"><rect class="cls-1" x="0" y="9.03" width="297.63" height="67.32" rx="33.66" ry="33.66"/><rect class="cls-1" x="91.34" y="117.14" width="206.29" height="67.32" rx="33.66" ry="33.66"/><rect class="cls-1" x="173.65" y="225.26" width="123.98" height="67.32" rx="33.66" ry="33.66"/><path class="cls-2" d="M536.2,9.03v52.57h-141.37v60.93h123.45v52.57h-123.45v117.48h-58.94V9.03h200.31Z"/><path class="cls-2" d="M688.32,196.99v-109.91h56.15v205.49h-54.96l-.8-27.88c-13.28,22.04-33.05,33.05-59.34,33.05-21.24,0-37.77-6.5-49.58-19.51-11.82-13.01-17.72-30.79-17.72-53.36V87.08h56.15v125.05c0,11.15,2.59,19.78,7.77,25.89,5.18,6.11,12.54,9.16,22.1,9.16,11.95,0,21.64-4.58,29.07-13.74,7.43-9.16,11.15-21.31,11.15-36.44Z"/><path class="cls-2" d="M896.59,128.5l-38.23-1.19v100.75c0,6.91,1.53,11.88,4.58,14.93,3.05,3.06,8.03,4.58,14.93,4.58h18.72v45h-36.64c-20.71,0-35.51-4.44-44.4-13.34-8.9-8.89-13.34-23.69-13.34-44.4v-107.52l-27.88,1.19v-41.42l27.88.8V23.76h56.15v64.51l38.23-1.19v41.42Z"/><path class="cls-2" d="M1054.69,196.99v-109.91h56.15v205.49h-54.96l-.8-27.88c-13.28,22.04-33.05,33.05-59.34,33.05-21.24,0-37.77-6.5-49.58-19.51-11.82-13.01-17.72-30.79-17.72-53.36V87.08h56.15v125.05c0,11.15,2.59,19.78,7.77,25.89,5.18,6.11,12.54,9.16,22.1,9.16,11.95,0,21.63-4.58,29.07-13.74,7.43-9.16,11.15-21.31,11.15-36.44Z"/><path class="cls-2" d="M1259.38,79.91c6.63,0,12.61.93,17.92,2.79v51.37c-6.91-.53-10.75-.8-11.55-.8-33.99,0-50.97,19.78-50.97,59.34v99.96h-56.15V87.08h54.96l-.8,27.48c9.02-23.1,24.55-34.65,46.59-34.65Z"/><circle class="cls-3" cx="1337.23" cy="34.51" r="34.51"/><rect class="cls-2" x="1309.16" y="87.08" width="56.15" height="205.49"/><path class="cls-2" d="M1517.43,128.5l-38.23-1.19v100.75c0,6.91,1.53,11.88,4.58,14.93,3.05,3.06,8.03,4.58,14.93,4.58h18.72v45h-36.64c-20.71,0-35.51-4.44-44.4-13.34-8.9-8.89-13.34-23.69-13.34-44.4v-107.52l-27.88,1.19v-41.42l27.88.8V23.76h56.15v64.51l38.23-1.19v41.42Z"/><path class="cls-2" d="M1637.29,232.44l43.81-145.36h59.74l-82.04,242.13c-5.58,16.99-12.81,28.67-21.7,35.04-8.9,6.37-21.18,9.56-36.84,9.56h-46.99v-47.79h27.08c15.13,0,24.82-5.84,29.07-17.52l1.99-5.58-80.05-215.84h61.73l37.83,115.49,6.37,29.87Z"/></g></svg>